# xmcd CD database file
#
# Track frame offsets:
#	150
#	25012
#	49760
#
# Disc length: 894 seconds
#
# Revision: 0
# Processed by: cddbd v1.5.1PL2 Copyright (c) Steve Scherf et al.
# Submitted via: CDex 1.51
#
DISCID=1a037c03
DTITLE=折笠愛、水谷優子、根谷美智子 - ももいろシスターズ／PARADISE^2
DYEAR=1996
DGENRE=Anime
TTITLE0=PARADISE^2
TTITLE1=PARADISE^2(Off Vocal)
TTITLE2=ももいろシスターズ office Version予告ドラマ
EXTD=YEAR: 1996
EXTT0=
EXTT1=
EXTT2=
PLAYORDER=
